<svg width="82" height="58" viewBox="0 0 82 58" fill="none" xmlns="http://www.w3.org/2000/svg">
<path d="M77.5294 24.5026H65.2879C63.0388 24.5026 61.2074 26.3355 61.2074 28.5864C61.2074 39.8409 52.0504 49.0053 40.8049 49.0053C35.3589 49.0053 30.2342 46.883 26.3786 43.0243C24.7882 41.4326 22.2017 41.4326 20.6113 43.0243C19.0209 44.616 19.0209 47.2046 20.6113 48.7963C26.0091 54.1985 33.1741 57.1729 40.8049 57.1729C55.167 57.1729 67.0871 46.4972 69.0792 32.6702H77.5294C79.7784 32.6702 81.6098 30.8373 81.6098 28.5864C81.6098 26.3355 79.7784 24.5026 77.5294 24.5026Z" fill="#3D8E30" fill-opacity="0.8"/>
<path d="M40.8049 8.16755C46.2509 8.16755 51.3756 10.2898 55.2312 14.1485C56.8216 15.7402 59.4081 15.7402 60.9985 14.1485C62.589 12.5568 62.589 9.96827 60.9985 8.37656C55.6007 2.9744 48.4358 0 40.8049 0C26.4429 0 14.5227 10.6757 12.5306 24.5027H4.08049C1.8314 24.5027 0 26.3355 0 28.5864C0 30.8373 1.8314 32.6702 4.08049 32.6702H16.322C18.5711 32.6702 20.4025 30.8373 20.4025 28.5864C20.4025 17.3319 29.5595 8.16755 40.8049 8.16755Z" fill="#3D8E30" fill-opacity="0.8"/>
<path d="M40.8048 40.8378C47.5655 40.8378 53.0462 35.3527 53.0462 28.5864C53.0462 21.8202 47.5655 16.3351 40.8048 16.3351C34.044 16.3351 28.5633 21.8202 28.5633 28.5864C28.5633 35.3527 34.044 40.8378 40.8048 40.8378Z" fill="#3D8E30"/>
</svg>
